<svg width="15" height="15" viewBox="0 0 15 15" fill="none" xmlns="http://www.w3.org/2000/svg">
<path fill-rule="evenodd" clip-rule="evenodd" d="M0.9375 3.75V13.125C0.9375 13.3736 1.03627 13.6121 1.21209 13.7879C1.3879 13.9637 1.62636 14.0625 1.875 14.0625H13.125C13.3736 14.0625 13.6121 13.9637 13.7879 13.7879C13.9637 13.6121 14.0625 13.3736 14.0625 13.125V3.75H0.9375ZM1.875 0.9375C1.37772 0.9375 0.900806 1.13504 0.549175 1.48667C0.197544 1.83831 0 2.31522 0 2.8125L0 13.125C0 13.6223 0.197544 14.0992 0.549175 14.4508C0.900806 14.8025 1.37772 15 1.875 15H13.125C13.6223 15 14.0992 14.8025 14.4508 14.4508C14.8025 14.0992 15 13.6223 15 13.125V2.8125C15 2.31522 14.8025 1.83831 14.4508 1.48667C14.0992 1.13504 13.6223 0.9375 13.125 0.9375H1.875Z" fill="#B5838D"/>
<path fill-rule="evenodd" clip-rule="evenodd" d="M3.28125 0C3.40557 0 3.5248 0.049386 3.61271 0.137294C3.70061 0.225201 3.75 0.34443 3.75 0.46875V0.9375C3.75 1.06182 3.70061 1.18105 3.61271 1.26896C3.5248 1.35686 3.40557 1.40625 3.28125 1.40625C3.15693 1.40625 3.0377 1.35686 2.94979 1.26896C2.86189 1.18105 2.8125 1.06182 2.8125 0.9375V0.46875C2.8125 0.34443 2.86189 0.225201 2.94979 0.137294C3.0377 0.049386 3.15693 0 3.28125 0V0ZM11.7188 0C11.8431 0 11.9623 0.049386 12.0502 0.137294C12.1381 0.225201 12.1875 0.34443 12.1875 0.46875V0.9375C12.1875 1.06182 12.1381 1.18105 12.0502 1.26896C11.9623 1.35686 11.8431 1.40625 11.7188 1.40625C11.5944 1.40625 11.4752 1.35686 11.3873 1.26896C11.2994 1.18105 11.25 1.06182 11.25 0.9375V0.46875C11.25 0.34443 11.2994 0.225201 11.3873 0.137294C11.4752 0.049386 11.5944 0 11.7188 0V0Z" fill="#B5838D"/>
</svg>
