<svg width="16" height="15" viewBox="0 0 16 15" fill="none" xmlns="http://www.w3.org/2000/svg">
<g clip-path="url(#clip0)">
<path d="M5.98688 6.40838e-07C6.96291 -0.00049456 7.9183 0.286016 8.73815 0.825076C9.558 1.36414 10.2074 2.13279 10.6082 3.0386C11.0091 3.94441 11.1443 4.9488 10.9977 5.93098C10.851 6.91316 10.4288 7.83131 9.78161 8.575L14.7369 14.3L14.0492 14.925L9.10618 9.225C8.47036 9.73121 7.72492 10.0755 6.93193 10.2291C6.13895 10.3827 5.32139 10.3412 4.54734 10.1081C3.77329 9.875 3.06517 9.45701 2.48196 8.88896C1.89874 8.32091 1.45732 7.61923 1.19447 6.84238C0.931608 6.06554 0.854921 5.236 0.970793 4.42288C1.08667 3.60976 1.39174 2.83659 1.86061 2.16777C2.32948 1.49895 2.94857 0.953849 3.66631 0.577865C4.38405 0.201882 5.17966 0.00590194 5.98688 0.00625064V6.40838e-07ZM5.98688 9.375C7.08613 9.375 8.14036 8.93053 8.91765 8.13936C9.69494 7.34819 10.1316 6.27513 10.1316 5.15625C10.1316 4.03737 9.69494 2.96431 8.91765 2.17314C8.14036 1.38197 7.08613 0.937501 5.98688 0.937501C4.88762 0.937501 3.8334 1.38197 3.05611 2.17314C2.27882 2.96431 1.84214 4.03737 1.84214 5.15625C1.84214 6.27513 2.27882 7.34819 3.05611 8.13936C3.8334 8.93053 4.88762 9.375 5.98688 9.375Z" fill="#B5838D"/>
</g>
<defs>
<clipPath id="clip0">
<rect width="14.7368" height="15" fill="white" transform="matrix(-1 0 0 1 15.3509 0)"/>
</clipPath>
</defs>
</svg>
